<?xml version="1.0" encoding="UTF-8" standalone="no"?>
<!-- Created with Inkscape (http://www.inkscape.org/) -->

<svg
   xmlns:dc="http://purl.org/dc/elements/1.1/"
   xmlns:cc="http://creativecommons.org/ns#"
   xmlns:rdf="http://www.w3.org/1999/02/22-rdf-syntax-ns#"
   xmlns:svg="http://www.w3.org/2000/svg"
   xmlns="http://www.w3.org/2000/svg"
   xmlns:sodipodi="http://sodipodi.sourceforge.net/DTD/sodipodi-0.dtd"
   xmlns:inkscape="http://www.inkscape.org/namespaces/inkscape"
   width="200mm"
   height="200mm"
   viewBox="0 0 200 200"
   version="1.1"
   id="svg8"
   inkscape:version="0.92.4 (5da689c313, 2019-01-14)"
   sodipodi:docname="drawing.svg">
  <defs
     id="defs2" />
  <sodipodi:namedview
     id="base"
     pagecolor="#ffffff"
     bordercolor="#666666"
     borderopacity="1.0"
     inkscape:pageopacity="0.0"
     inkscape:pageshadow="2"
     inkscape:zoom="2"
     inkscape:cx="358.44055"
     inkscape:cy="340"
     inkscape:document-units="mm"
     inkscape:current-layer="layer1"
     showgrid="false"
     inkscape:window-width="3840"
     inkscape:window-height="2068"
     inkscape:window-x="-12"
     inkscape:window-y="-12"
     inkscape:window-maximized="1" />
  <metadata
     id="metadata5">
    <rdf:RDF>
      <cc:Work
         rdf:about="">
        <dc:format>image/svg+xml</dc:format>
        <dc:type
           rdf:resource="http://purl.org/dc/dcmitype/StillImage" />
        <dc:title />
      </cc:Work>
    </rdf:RDF>
  </metadata>
  <g
     inkscape:label="Layer 1"
     inkscape:groupmode="layer"
     id="layer1"
     transform="translate(0,-97)">
    <g
       id="g908">
      <rect
         y="109.05968"
         x="106.44865"
         height="12.872299"
         width="87.033005"
         id="rect815-3"
         style="fill:#b9b9bb;fill-opacity:1;stroke:#000000;stroke-width:1;stroke-linejoin:round;stroke-miterlimit:4;stroke-dasharray:none;stroke-opacity:1" />
      <rect
         y="121.93198"
         x="19.415667"
         height="81.741325"
         width="87.032997"
         id="rect815-4"
         style="fill:#ffffff;fill-opacity:1;stroke:#000000;stroke-width:1;stroke-linejoin:round;stroke-miterlimit:4;stroke-dasharray:none;stroke-opacity:1" />
      <rect
         y="203.67329"
         x="19.415657"
         height="81.741325"
         width="87.032997"
         id="rect815-4-8"
         style="fill:#ffffff;fill-opacity:1;stroke:#000000;stroke-width:1;stroke-linejoin:round;stroke-miterlimit:4;stroke-dasharray:none;stroke-opacity:1" />
      <rect
         y="121.93198"
         x="106.44865"
         height="81.741325"
         width="87.032997"
         id="rect815-4-1"
         style="fill:#ffffff;fill-opacity:1;stroke:#000000;stroke-width:1;stroke-linejoin:round;stroke-miterlimit:4;stroke-dasharray:none;stroke-opacity:1" />
      <rect
         y="203.67331"
         x="106.44865"
         height="81.741325"
         width="87.032997"
         id="rect815-4-10"
         style="fill:#ffffff;fill-opacity:1;stroke:#000000;stroke-width:1;stroke-linejoin:round;stroke-miterlimit:4;stroke-dasharray:none;stroke-opacity:1" />
      <rect
         y="125.81458"
         x="23.680218"
         height="29.36875"
         width="51.064583"
         id="rect889"
         style="fill:#fff473;fill-opacity:1;stroke:#889003;stroke-width:1;stroke-linejoin:round;stroke-miterlimit:4;stroke-dasharray:none;stroke-opacity:1" />
      <rect
         y="169.07396"
         x="51.990635"
         height="29.36875"
         width="51.064583"
         id="rect889-9"
         style="fill:#fc4800;fill-opacity:1;stroke:#c30003;stroke-width:1;stroke-linejoin:round;stroke-miterlimit:4;stroke-dasharray:none;stroke-opacity:1" />
      <rect
         y="122.00226"
         x="6.2717085"
         height="81.671028"
         width="13.143948"
         id="rect815-45"
         style="fill:#b9b9bb;fill-opacity:1;stroke:#000000;stroke-width:1;stroke-linejoin:round;stroke-miterlimit:4;stroke-dasharray:none;stroke-opacity:1" />
      <rect
         y="203.67329"
         x="6.2717085"
         height="81.671036"
         width="13.143948"
         id="rect815-45-0"
         style="fill:#b9b9bb;fill-opacity:1;stroke:#000000;stroke-width:1;stroke-linejoin:round;stroke-miterlimit:4;stroke-dasharray:none;stroke-opacity:1" />
      <rect
         y="245.27303"
         x="23.680208"
         height="29.36875"
         width="51.064583"
         id="rect889-9-4"
         style="fill:#fff473;fill-opacity:1;stroke:#889003;stroke-width:1;stroke-linejoin:round;stroke-miterlimit:4;stroke-dasharray:none;stroke-opacity:1" />
      <rect
         y="208.49605"
         x="112.84482"
         height="29.36875"
         width="51.064583"
         id="rect889-9-2"
         style="fill:#41c873;fill-opacity:1;stroke:#186803;stroke-width:1;stroke-linejoin:round;stroke-miterlimit:4;stroke-dasharray:none;stroke-opacity:1" />
      <rect
         y="109.05968"
         x="6.271719"
         height="12.872299"
         width="13.143947"
         id="rect815-9"
         style="fill:#b9b9bb;fill-opacity:1;stroke:#000000;stroke-width:1;stroke-linejoin:round;stroke-miterlimit:4;stroke-dasharray:none;stroke-opacity:1" />
      <rect
         y="109.05968"
         x="19.415667"
         height="12.872299"
         width="87.033005"
         id="rect815-3-6"
         style="fill:#b9b9bb;fill-opacity:1;stroke:#000000;stroke-width:1;stroke-linejoin:round;stroke-miterlimit:4;stroke-dasharray:none;stroke-opacity:1" />
      <rect
         y="208.49605"
         x="23.680208"
         height="29.36875"
         width="51.064583"
         id="rect889-9-0"
         style="fill:#fff473;fill-opacity:1;stroke:#889003;stroke-width:1;stroke-linejoin:round;stroke-miterlimit:4;stroke-dasharray:none;stroke-opacity:1" />
      <g
         transform="translate(140.22917,-25.929167)"
         id="text860"
         style="font-style:normal;font-variant:normal;font-weight:normal;font-stretch:normal;font-size:6.3499999px;line-height:1.25;font-family:Arial;-inkscape-font-specification:Arial;letter-spacing:0px;word-spacing:0px;fill:#000000;fill-opacity:1;stroke:none;stroke-width:0.26458332"
         aria-label="TODO">
        <path
           inkscape:connector-curvature="0"
           id="path862"
           style="stroke-width:0.26458332"
           d="m -87.782758,144.07083 v -4.00906 h -1.497583 v -0.5364 h 3.602881 v 0.5364 h -1.503784 v 4.00906 z" />
        <path
           inkscape:connector-curvature="0"
           id="path864"
           style="stroke-width:0.26458332"
           d="m -85.351898,141.85701 q 0,-1.13171 0.607715,-1.77043 0.607715,-0.64182 1.568896,-0.64182 0.629419,0 1.134815,0.30075 0.505395,0.30076 0.768945,0.84026 0.26665,0.5364 0.26665,1.21853 0,0.69143 -0.279052,1.23714 -0.279053,0.5457 -0.79065,0.82785 -0.511597,0.27906 -1.103808,0.27906 -0.641822,0 -1.147217,-0.31006 -0.505396,-0.31006 -0.765845,-0.84646 -0.260449,-0.5364 -0.260449,-1.13482 z m 0.620117,0.009 q 0,0.82166 0.440283,1.29605 0.443384,0.47129 1.11001,0.47129 0.679028,0 1.116211,-0.47749 0.440283,-0.47749 0.440283,-1.35496 0,-0.555 -0.189136,-0.96738 -0.186035,-0.41548 -0.548803,-0.64182 -0.359668,-0.22945 -0.809253,-0.22945 -0.638721,0 -1.100708,0.44029 -0.458887,0.43718 -0.458887,1.46347 z" />
        <path
           inkscape:connector-curvature="0"
           id="path866"
           style="stroke-width:0.26458332"
           d="m -80.23283,144.07083 v -4.54546 h 1.565795 q 0.530201,0 0.809253,0.0651 0.390674,0.0899 0.666626,0.32557 0.359668,0.30385 0.536402,0.77824 0.179834,0.47129 0.179834,1.07901 0,0.51779 -0.120923,0.91777 -0.120923,0.39998 -0.310059,0.66353 -0.189136,0.26045 -0.415478,0.41237 -0.223242,0.14883 -0.542603,0.22635 -0.31626,0.0775 -0.728638,0.0775 z m 0.601513,-0.5364 h 0.970484 q 0.449585,0 0.703833,-0.0837 0.257348,-0.0837 0.409277,-0.23564 0.21394,-0.21394 0.331763,-0.57361 0.120922,-0.36277 0.120922,-0.87746 0,-0.71314 -0.235644,-1.09451 -0.232544,-0.38447 -0.567407,-0.5147 -0.241846,-0.093 -0.778247,-0.093 h -0.954981 z" />
        <path
           inkscape:connector-curvature="0"
           id="path868"
           style="stroke-width:0.26458332"
           d="m -75.826898,141.85701 q 0,-1.13171 0.607715,-1.77043 0.607715,-0.64182 1.568896,-0.64182 0.629419,0 1.134815,0.30075 0.505395,0.30076 0.768945,0.84026 0.266651,0.5364 0.266651,1.21853 0,0.69143 -0.279053,1.23714 -0.279053,0.5457 -0.79065,0.82785 -0.511596,0.27906 -1.103808,0.27906 -0.641821,0 -1.147217,-0.31006 -0.505395,-0.31006 -0.765845,-0.84646 -0.260449,-0.5364 -0.260449,-1.13482 z m 0.620117,0.009 q 0,0.82166 0.440284,1.29605 0.443383,0.47129 1.110009,0.47129 0.679029,0 1.116211,-0.47749 0.440283,-0.47749 0.440283,-1.35496 0,-0.555 -0.189135,-0.96738 -0.186035,-0.41548 -0.548804,-0.64182 -0.359668,-0.22945 -0.809253,-0.22945 -0.638721,0 -1.100708,0.44029 -0.458887,0.43718 -0.458887,1.46347 z" />
      </g>
      <g
         transform="translate(213.78333,-27.252083)"
         id="text873"
         style="font-style:normal;font-variant:normal;font-weight:normal;font-stretch:normal;font-size:6.3499999px;line-height:1.25;font-family:Arial;-inkscape-font-specification:Arial;letter-spacing:0px;word-spacing:0px;fill:#000000;fill-opacity:1;stroke:none;stroke-width:0.26458332"
         aria-label="DONE">
        <path
           inkscape:connector-curvature="0"
           id="path875"
           style="stroke-width:0.26458332"
           d="m -72.535109,145.39375 v -4.54546 h 1.565796 q 0.5302,0 0.809253,0.0651 0.390674,0.0899 0.666626,0.32556 0.359668,0.30386 0.536401,0.77825 0.179834,0.47128 0.179834,1.079 0,0.5178 -0.120923,0.91777 -0.120923,0.39998 -0.310058,0.66353 -0.189136,0.26045 -0.415479,0.41238 -0.223242,0.14882 -0.542602,0.22634 -0.31626,0.0775 -0.728638,0.0775 z m 0.601514,-0.5364 h 0.970483 q 0.449585,0 0.703833,-0.0837 0.257349,-0.0837 0.409277,-0.23565 0.213941,-0.21394 0.331763,-0.57361 0.120923,-0.36277 0.120923,-0.87746 0,-0.71314 -0.235645,-1.09451 -0.232544,-0.38447 -0.567407,-0.5147 -0.241845,-0.093 -0.778247,-0.093 h -0.95498 z" />
        <path
           inkscape:connector-curvature="0"
           id="path877"
           style="stroke-width:0.26458332"
           d="m -68.129176,143.17993 q 0,-1.13171 0.607714,-1.77043 0.607715,-0.64182 1.568897,-0.64182 0.629419,0 1.134814,0.30076 0.505396,0.30075 0.768946,0.84025 0.26665,0.53641 0.26665,1.21853 0,0.69144 -0.279053,1.23714 -0.279052,0.5457 -0.790649,0.82785 -0.511597,0.27906 -1.103809,0.27906 -0.641821,0 -1.147216,-0.31006 -0.505396,-0.31006 -0.765845,-0.84646 -0.260449,-0.5364 -0.260449,-1.13482 z m 0.620117,0.009 q 0,0.82165 0.440283,1.29604 0.443384,0.47129 1.11001,0.47129 0.679028,0 1.116211,-0.47749 0.440283,-0.47749 0.440283,-1.35496 0,-0.555 -0.189136,-0.96738 -0.186035,-0.41548 -0.548804,-0.64182 -0.359667,-0.22944 -0.809252,-0.22944 -0.638721,0 -1.100708,0.44028 -0.458887,0.43718 -0.458887,1.46348 z" />
        <path
           inkscape:connector-curvature="0"
           id="path879"
           style="stroke-width:0.26458332"
           d="m -63.016311,145.39375 v -4.54546 h 0.617017 l 2.387451,3.56878 v -3.56878 h 0.576709 v 4.54546 h -0.617016 l -2.387452,-3.57187 v 3.57187 z" />
        <path
           inkscape:connector-curvature="0"
           id="path881"
           style="stroke-width:0.26458332"
           d="m -58.40884,145.39375 v -4.54546 h 3.286621 v 0.53641 h -2.685107 v 1.39216 h 2.514575 v 0.5333 h -2.514575 v 1.54719 h 2.790527 v 0.5364 z" />
      </g>
    </g>
  </g>
</svg>
